HIERARCHY
ROOT Pelvis
{
	OFFSET 0.000000 0.941512 0.000000
	CHANNELS 6 Xposition Yposition Zposition Zrotation Yrotation Xrotation 
	JOINT Pelvis_L_Hip
	{
		OFFSET 0.000000 0.000000 0.000000
		CHANNELS 3 Zrotation Yrotation Xrotation
		JOINT L_Hip
		{
			OFFSET 0.062321 -0.080322 -0.016990
			CHANNELS 3 Zrotation Yrotation Xrotation
			JOINT L_Knee
			{
				OFFSET 0.093051 -0.381305 -0.029784
				CHANNELS 3 Zrotation Yrotation Xrotation
				JOINT L_Ankle
				{
					OFFSET -0.010371 -0.431000 -0.033614
					CHANNELS 3 Zrotation Yrotation Xrotation
					End Site #name: L_Foot
					{
						OFFSET 0.069299 -0.038670 0.119418
					}
				}
			}
		}
	}
	JOINT Pelvis_R_Hip
	{
		OFFSET 0.000000 0.000000 0.000000
		CHANNELS 3 Zrotation Yrotation Xrotation
		JOINT R_Hip
		{
			OFFSET -0.055334 -0.094904 -0.002373
			CHANNELS 3 Zrotation Yrotation Xrotation
			JOINT R_Knee
			{
				OFFSET -0.064207 -0.384370 -0.019592
				CHANNELS 3 Zrotation Yrotation Xrotation
				JOINT R_Ankle
				{
					OFFSET 0.025418 -0.419734 -0.065953
					CHANNELS 3 Zrotation Yrotation Xrotation
					End Site #name: R_Foot
					{
						OFFSET -0.057233 -0.039888 0.132134
					}
				}
			}
		}
	}
	JOINT Pelvis_Spine1
	{
		OFFSET 0.000000 0.000000 0.000000
		CHANNELS 3 Zrotation Yrotation Xrotation
		JOINT Spine1
		{
			OFFSET -0.005562 0.124093 -0.043360
			CHANNELS 3 Zrotation Yrotation Xrotation
			JOINT Spine2
			{
				OFFSET 0.012244 0.139499 0.029894
				CHANNELS 3 Zrotation Yrotation Xrotation
				JOINT Spine3
				{
					OFFSET -0.002556 0.056561 0.009225
					CHANNELS 3 Zrotation Yrotation Xrotation
					JOINT Spine3_Neck
					{
						OFFSET 0.000000 0.000000 0.000000
						CHANNELS 3 Zrotation Yrotation Xrotation
						JOINT Neck
						{
							OFFSET -0.005205 0.217920 -0.024551
							CHANNELS 3 Zrotation Yrotation Xrotation
							End Site #name: Head
							{
								OFFSET 0.002365 0.091850 0.046637
							}
						}
					}
					JOINT Spine3_L_Collar
					{
						OFFSET 0.000000 0.000000 0.000000
						CHANNELS 3 Zrotation Yrotation Xrotation
						JOINT L_Collar
						{
							OFFSET 0.072225 0.116603 -0.009480
							CHANNELS 3 Zrotation Yrotation Xrotation
							JOINT L_Shoulder
							{
								OFFSET 0.115937 -0.058643 -0.021018
								CHANNELS 3 Zrotation Yrotation Xrotation
								JOINT L_Elbow
								{
									OFFSET 0.021994 -0.254722 -0.024492
									CHANNELS 3 Zrotation Yrotation Xrotation
									End Site #name: L_Wrist
									{
										OFFSET 0.048810 -0.240214 0.103329
									}
								}
							}
						}
					}
					JOINT Spine3_R_Collar
					{
						OFFSET 0.000000 0.000000 0.000000
						CHANNELS 3 Zrotation Yrotation Xrotation
						JOINT R_Collar
						{
							OFFSET -0.073372 0.120704 -0.024611
							CHANNELS 3 Zrotation Yrotation Xrotation
							JOINT R_Shoulder
							{
								OFFSET -0.108089 -0.054969 -0.020504
								CHANNELS 3 Zrotation Yrotation Xrotation
								JOINT R_Elbow
								{
									OFFSET -0.033684 -0.260739 0.009889
									CHANNELS 3 Zrotation Yrotation Xrotation
									End Site #name: R_Wrist
									{
										OFFSET -0.067980 -0.232763 0.118463
									}
								}
							}
						}
					}
				}
			}
		}
	}
}
MOTION
Frames: 14
Frame Time: 0.041667
0.000000 0.942199 0.000000 -1.599522 -0.932995 0.775988 0.000000 0.000000 0.000000 -4.959379 1.789226 4.763296 -0.443951 0.161708 -6.159100 1.742438 -2.067301 -4.131720 0.000000 0.000000 0.000000 3.476536 -0.251198 0.327282 -1.700055 0.402520 1.783073 2.453271 18.666142 -5.027897 0.000000 0.000000 0.000000 1.603543 0.403586 -7.410146 1.271130 -0.104727 2.995805 -0.677192 0.659739 3.195384 0.000000 0.000000 0.000000 -2.197857 1.127098 1.392464 0.000000 0.000000 0.000000 5.332467 -4.668557 -1.647666 -9.782452 2.174472 6.765277 2.557042 -0.120613 -6.776677 0.000000 0.000000 0.000000 -4.841533 5.011304 -1.891029 9.354574 -1.803544 9.978204 -3.872162 -0.148647 -7.102471 
0.000474 0.942101 -0.000284 -1.598877 -0.880026 0.770532 0.000000 0.000000 0.000000 -4.933275 1.785865 4.764098 -0.549338 0.164638 -6.189498 1.793314 -2.032932 -4.200639 0.000000 0.000000 0.000000 3.438692 -0.249311 0.329748 -1.682102 0.398781 1.773472 2.450095 18.641845 -5.024621 0.000000 0.000000 0.000000 1.633081 0.380899 -7.225214 1.107636 -0.086678 2.635955 -0.627290 0.656584 3.479663 0.000000 0.000000 0.000000 -2.195600 1.127563 1.012800 0.000000 0.000000 0.000000 5.571016 -4.791388 -1.682712 -10.131797 2.210099 6.626880 2.626035 -0.103818 -6.867922 0.000000 0.000000 0.000000 -4.853305 5.139844 -1.962704 9.439114 -1.841402 10.115863 -3.979901 -0.238303 -7.003606 
0.000905 0.942078 -0.000470 -1.611844 -0.826649 0.822524 0.000000 0.000000 0.000000 -4.913870 1.762429 4.692253 -0.598747 0.165703 -6.194889 1.782660 -2.071010 -4.199110 0.000000 0.000000 0.000000 3.428422 -0.235078 0.259343 -1.659293 0.395932 1.788265 2.430173 18.553969 -5.025310 0.000000 0.000000 0.000000 1.627588 0.382060 -7.227071 1.092577 -0.084681 2.615909 -0.651675 0.655159 3.503298 0.000000 0.000000 0.000000 -2.180427 1.119434 1.009086 0.000000 0.000000 0.000000 5.573646 -4.853679 -1.717322 -10.177901 2.203705 6.551588 2.567286 -0.150539 -6.962589 0.000000 0.000000 0.000000 -4.872819 5.124678 -1.952126 9.454100 -1.865494 10.222054 -3.994097 -0.308226 -6.764997 
0.001484 0.942131 -0.000517 -1.628426 -0.813596 0.851276 0.000000 0.000000 0.000000 -4.924947 1.758961 4.675424 -0.615198 0.166722 -6.229369 1.792271 -2.099164 -4.229280 0.000000 0.000000 0.000000 3.407703 -0.229589 0.236602 -1.626689 0.388257 1.761599 2.423506 18.536873 -5.030975 0.000000 0.000000 0.000000 1.651160 0.379614 -7.237412 1.065609 -0.079503 2.618734 -0.676822 0.665791 3.514487 0.000000 0.000000 0.000000 -2.191536 1.125319 0.989281 0.000000 0.000000 0.000000 5.563268 -4.858588 -1.720690 -10.237936 2.194906 6.450087 2.523245 -0.198254 -7.094905 0.000000 0.000000 0.000000 -4.888168 5.119739 -1.947731 9.455148 -1.890652 10.336395 -4.003560 -0.375089 -6.529782 
0.001912 0.942130 -0.000360 -1.651677 -0.832827 0.838142 0.000000 0.000000 0.000000 -4.943987 1.769054 4.700388 -0.596555 0.166522 -6.220964 1.815624 -2.097816 -4.269882 0.000000 0.000000 0.000000 3.386131 -0.240069 0.295788 -1.589092 0.376986 1.698434 2.440177 18.555561 -5.007743 0.000000 0.000000 0.000000 1.674088 0.372669 -7.203134 1.043639 -0.075529 2.614248 -0.696598 0.678903 3.527724 0.000000 0.000000 0.000000 -2.213939 1.137165 0.973610 0.000000 0.000000 0.000000 5.540505 -4.826264 -1.705324 -10.244362 2.185843 6.392585 2.471539 -0.247453 -7.222639 0.000000 0.000000 0.000000 -4.869591 5.119393 -1.949942 9.434937 -1.911643 10.438050 -4.039882 -0.443374 -6.347703 
0.002281 0.942118 -0.000194 -1.680786 -0.865512 0.826878 0.000000 0.000000 0.000000 -4.945301 1.769801 4.703553 -0.590946 0.164958 -6.162590 1.856635 -2.061384 -4.324428 0.000000 0.000000 0.000000 3.374551 -0.252425 0.361850 -1.570030 0.367074 1.610331 2.475776 18.614448 -4.968653 0.000000 0.000000 0.000000 1.689815 0.368176 -7.183596 1.037709 -0.074570 2.612468 -0.709834 0.684431 3.561222 0.000000 0.000000 0.000000 -2.249716 1.156104 0.979317 0.000000 0.000000 0.000000 5.533134 -4.834026 -1.711210 -10.219521 2.181545 6.385954 2.394815 -0.297110 -7.290032 0.000000 0.000000 0.000000 -4.835769 5.115075 -1.951854 9.408804 -1.924663 10.509053 -4.094870 -0.513960 -6.197255 
0.002646 0.942148 -0.000115 -1.718447 -0.923124 0.834931 0.000000 0.000000 0.000000 -4.931557 1.761092 4.678710 -0.605907 0.164745 -6.109898 1.893303 -1.997114 -4.358345 0.000000 0.000000 0.000000 3.373832 -0.255568 0.377084 -1.574812 0.361937 1.531694 2.541002 18.726636 -4.896821 0.000000 0.000000 0.000000 1.713374 0.361927 -7.160005 1.038253 -0.074567 2.614563 -0.716759 0.678230 3.568047 0.000000 0.000000 0.000000 -2.274047 1.169082 1.025987 0.000000 0.000000 0.000000 5.530241 -4.856570 -1.725950 -10.225513 2.186640 6.405792 2.385187 -0.301725 -7.289141 0.000000 0.000000 0.000000 -4.844941 5.129457 -1.957686 9.424279 -1.932613 10.541972 -4.121880 -0.550670 -6.114193 
0.002948 0.942159 -0.000117 -1.768021 -0.993463 0.900888 0.000000 0.000000 0.000000 -4.895126 1.740675 4.621558 -0.646523 0.166409 -6.117178 1.916417 -1.912472 -4.359405 0.000000 0.000000 0.000000 3.390051 -0.244894 0.314876 -1.548126 0.354220 1.491330 2.577118 18.761613 -4.845063 0.000000 0.000000 0.000000 1.736683 0.360754 -7.187955 1.046070 -0.075716 2.619710 -0.724523 0.651510 3.557833 0.000000 0.000000 0.000000 -2.274756 1.169826 1.104022 0.000000 0.000000 0.000000 5.528115 -4.853421 -1.726358 -10.186334 2.184699 6.421490 2.336582 -0.311933 -7.207779 0.000000 0.000000 0.000000 -4.836760 5.084921 -1.931465 9.411254 -1.920215 10.496528 -4.090953 -0.519690 -6.165827 
0.003289 0.942113 -0.000112 -1.810311 -1.065207 0.980812 0.000000 0.000000 0.000000 -4.866238 1.728402 4.589825 -0.685189 0.169106 -6.198514 1.921870 -1.842624 -4.337056 0.000000 0.000000 0.000000 3.390910 -0.231300 0.242921 -1.507683 0.344937 1.459356 2.603510 18.787504 -4.806758 0.000000 0.000000 0.000000 1.751852 0.360573 -7.214518 1.058046 -0.078854 2.593796 -0.730383 0.619662 3.560394 0.000000 0.000000 0.000000 -2.278078 1.171900 1.164540 0.000000 0.000000 0.000000 5.534144 -4.844813 -1.722762 -10.117917 2.182740 6.465356 2.284702 -0.321624 -7.126732 0.000000 0.000000 0.000000 -4.841543 5.037240 -1.901702 9.405763 -1.898013 10.398802 -4.024750 -0.450638 -6.282406 
0.003623 0.942101 -0.000022 -1.843853 -1.112926 0.995126 0.000000 0.000000 0.000000 -4.869526 1.728066 4.586168 -0.670364 0.168971 -6.196100 1.944724 -1.799697 -4.357595 0.000000 0.000000 0.000000 3.390767 -0.231593 0.243541 -1.491126 0.339909 1.429813 2.628797 18.833950 -4.779328 0.000000 0.000000 0.000000 1.746716 0.355429 -7.158615 1.069777 -0.082717 2.547357 -0.720540 0.596708 3.567301 0.000000 0.000000 0.000000 -2.276604 1.171430 1.198337 0.000000 0.000000 0.000000 5.565583 -4.886809 -1.743979 -10.092246 2.190380 6.524931 2.284455 -0.311967 -7.074134 0.000000 0.000000 0.000000 -4.873295 5.047911 -1.901863 9.461031 -1.886405 10.333013 -4.020075 -0.420665 -6.391034 
0.003962 0.942103 -0.000003 -1.879359 -1.152307 1.012802 0.000000 0.000000 0.000000 -4.860294 1.720903 4.565308 -0.671759 0.168742 -6.178497 1.969692 -1.757636 -4.381788 0.000000 0.000000 0.000000 3.402264 -0.228233 0.221991 -1.503343 0.340621 1.412515 2.659052 18.899210 -4.752235 0.000000 0.000000 0.000000 1.740480 0.350968 -7.106685 1.079088 -0.085415 2.518154 -0.703483 0.589358 3.564844 0.000000 0.000000 0.000000 -2.265843 1.165963 1.219641 0.000000 0.000000 0.000000 5.606329 -4.927017 -1.762792 -10.086387 2.190442 6.525416 2.316255 -0.285760 -7.015942 0.000000 0.000000 0.000000 -4.877680 5.082489 -1.920142 9.471685 -1.878958 10.298209 -3.971722 -0.370225 -6.472758 
0.004355 0.942107 0.000001 -1.910185 -1.169441 1.026669 0.000000 0.000000 0.000000 -4.851156 1.713759 4.544484 -0.684780 0.168758 -6.159596 1.989681 -1.732316 -4.404777 0.000000 0.000000 0.000000 3.406761 -0.227516 0.216817 -1.502382 0.338704 1.388549 2.678978 18.922557 -4.725951 0.000000 0.000000 0.000000 1.730803 0.346008 -7.044603 1.091166 -0.088762 2.487209 -0.681929 0.596636 3.574937 0.000000 0.000000 0.000000 -2.251830 1.158608 1.218888 0.000000 0.000000 0.000000 5.634516 -4.933108 -1.762994 -10.075078 2.181625 6.484822 2.346389 -0.273032 -7.031453 0.000000 0.000000 0.000000 -4.880446 5.112455 -1.936780 9.462582 -1.877069 10.291661 -3.962417 -0.332855 -6.599957 
0.004848 0.942125 0.000070 -1.940631 -1.166948 1.040352 0.000000 0.000000 0.000000 -4.845566 1.701993 4.506325 -0.697512 0.168138 -6.105846 2.008890 -1.724307 -4.434218 0.000000 0.000000 0.000000 3.403526 -0.227417 0.216112 -1.485442 0.335008 1.378190 2.688286 18.890471 -4.695764 0.000000 0.000000 0.000000 1.737383 0.339193 -6.986651 1.105523 -0.092002 2.471117 -0.664564 0.616575 3.575746 0.000000 0.000000 0.000000 -2.245103 1.154946 1.227355 0.000000 0.000000 0.000000 5.646163 -4.934743 -1.761648 -10.057491 2.172325 6.449746 2.318998 -0.302742 -7.114819 0.000000 0.000000 0.000000 -4.900649 5.163475 -1.963504 9.458698 -1.882451 10.316404 -3.936298 -0.287963 -6.708796 
0.005421 0.942177 0.000088 -1.976675 -1.168057 1.073425 0.000000 0.000000 0.000000 -4.845876 1.688211 4.459106 -0.698009 0.167296 -6.075515 2.024889 -1.706693 -4.453663 0.000000 0.000000 0.000000 3.403560 -0.223821 0.196718 -1.491164 0.333289 1.342859 2.692922 18.912916 -4.698366 0.000000 0.000000 0.000000 1.745815 0.336310 -6.972092 1.132858 -0.096023 2.499572 -0.637783 0.635377 3.574513 0.000000 0.000000 0.000000 -2.250961 1.158035 1.252948 0.000000 0.000000 0.000000 5.666785 -4.945030 -1.764198 -10.081631 2.171483 6.427462 2.294279 -0.335812 -7.221666 0.000000 0.000000 0.000000 -4.902134 5.217078 -1.994429 9.401930 -1.881842 10.329359 -3.943013 -0.291913 -6.712674 
